<?xml version="1.0" encoding="UTF-8" standalone="no"?>
<!-- Created with Inkscape (http://www.inkscape.org/) -->

<svg
   version="1.1"
   id="svg1"
   width="769.50977"
   height="597.41602"
   viewBox="0 0 769.5098 597.41601"
   xmlns="http://www.w3.org/2000/svg"
   xmlns:svg="http://www.w3.org/2000/svg">
  <defs
     id="defs1">
    <linearGradient
       id="swatch20">
      <stop
         style="stop-color:#000000;stop-opacity:1;"
         offset="0"
         id="stop20" />
    </linearGradient>
  </defs>
  <g
     id="g1"
     transform="translate(-186.99414,-234.57031)">
    <path
       id="path20"
       d="m 550.29688,234.57031 -18.48243,2.06641 C 462.30442,244.40663 401.79687,265.97283 372,293.59766 l -8,7.41601 -5.03125,8.49414 -5.0293,8.49219 -4.63672,14.30859 c -2.54981,7.86977 -4.63671,15.29581 -4.63671,16.50196 0,1.20616 -1.73847,9.46671 -3.86524,18.35742 -2.12676,8.89072 -4.2771,18.86603 -4.77734,22.16601 -0.50024,3.3 -3.24662,15.90004 -6.10352,28 -2.8569,12.09998 -6.08989,27.69937 -7.18359,34.66602 -1.0937,6.96665 -3.48079,17.6361 -5.30469,23.70898 -1.8239,6.07289 -3.96842,15.97291 -4.76562,22 -0.79722,6.0271 -3.18612,18.45836 -5.3086,27.625 -2.12247,9.16667 -5.23229,22.62103 -6.91211,29.89844 l -3.05469,13.23047 1.55079,0.51758 c 0.85348,0.28449 3.84113,2.16465 6.63867,4.17773 79.22101,57.00715 133.70702,76.82901 245.7539,89.40821 l 11.33204,1.27343 L 588,663.21094 613.33398,662.58398 628,660.4668 c 8.06665,-1.16433 15.73339,-2.67639 17.03711,-3.35938 l 2.37109,-1.24023 -0.80078,-6.9336 c -0.44031,-3.81327 -1.46235,-10.23425 -2.27148,-14.26757 -0.80913,-4.03333 -1.6221,-8.13724 -1.80469,-9.1211 -0.18259,-0.98387 -0.52691,-1.98394 -0.76563,-2.22265 -0.23869,-0.23872 -11.53333,0.75596 -25.0996,2.21093 L 592,628.17773 560.66602,627.5 529.33398,626.82227 503.16211,622.83203 C 464.89734,616.99981 444.80005,611.56187 408,597.08203 l -13.33398,-5.24609 -21.33204,-12.16016 c -11.73329,-6.68839 -25.13744,-14.84231 -29.78515,-18.11914 l -8.44922,-5.95703 0.70703,-2.80078 c 0.38867,-1.53968 2.06125,-8.19885 3.71875,-14.79883 3.63523,-14.47508 3.14945,-13.73583 6.8125,-10.37109 6.61054,6.07219 25.51338,17.23858 46.99609,27.76171 L 416,566.49414 l 20.66602,6.02148 c 30.97919,9.02865 59.03313,15.21509 85.33398,18.81836 l 15.33398,2.10157 28,0.041 28,0.041 L 610,592.03125 c 9.16665,-0.81731 18.76734,-1.93697 21.33398,-2.48828 L 636,588.54102 635.89648,581.9375 c -0.0567,-3.63203 -0.59895,-11.90376 -1.20507,-18.38086 l -1.10157,-11.77734 -4.79492,0.97265 c -2.63717,0.53471 -11.39427,1.72812 -19.46094,2.65039 l -14.66796,1.67578 -33.33204,-0.46679 L 528,556.14258 512,554 c -50.01098,-6.69778 -84.19781,-16.66244 -121.18359,-35.32422 -12.46684,-6.29034 -38.61494,-22.86025 -40.25,-25.50586 -0.7468,-1.20835 4.70563,-31.4752 10.05859,-55.83594 7.77914,-35.40194 9.33426,-42.88781 10.73828,-51.66796 1.82106,-11.38811 1.41609,-11.20255 8.59375,-3.92188 7.6872,7.79751 19.05498,13.91107 29.56836,19.13672 2.61445,1.2995 5.39863,2.29359 8.23438,2.98828 3.83839,0.94032 7.83458,1.0412 11.75195,1.5625 3.91736,0.52131 7.80084,1.48565 11.75195,1.56445 2.91234,0.0581 5.82873,-0.32286 8.70117,-0.80664 29.68922,-5.0002 59.10128,-12.19053 87.70704,-21.58007 16.56958,-5.43881 31.86428,-14.28812 48.32812,-20.03907 52.41231,-18.30797 105.14301,-38.08493 160.11133,-45.87695 3.33684,-0.47302 10.10937,-0.0273 10.10937,-0.0273 L 758.31641,327 c 10.46083,41.62048 18.96954,77.3117 22.80664,95.66602 2.52956,12.09996 6.85866,32.7675 9.62109,45.92773 l 5.02344,23.92773 -1.27344,0.42579 c -0.69997,0.23333 -7.24819,4.32286 -14.55078,9.08789 -7.3026,4.765 -21.37736,12.762 -31.27734,17.77148 l -18,9.10742 -18,5.66211 c -9.89998,3.11438 -20.99935,6.66505 -24.66602,7.88867 l -6.66602,2.22461 -0.42382,9.32227 c -0.23288,5.12721 -0.0352,12.50886 0.43945,16.4043 l 0.86328,7.08203 1.9043,0.73047 1.90429,0.73242 4.44727,-2.11133 c 2.44561,-1.16051 9.49116,-3.30947 15.65625,-4.77734 30.69875,-7.30923 75.10795,-27.97037 91.01758,-42.34375 l 5.23242,-4.72657 0.98633,1.83203 c 0.54303,1.00792 1.40028,6.33205 1.90429,11.83204 0.50403,5.49998 1.34923,12.09231 1.87696,14.64843 l 0.95898,4.64649 -6.05078,2.81445 c -3.32791,1.54742 -11.45587,6.42907 -18.0625,10.84766 -6.60662,4.41858 -18.97498,11.62145 -27.48437,16.00586 l -15.47071,7.9707 -17.42773,5.64648 c -9.58514,3.10514 -21.7528,6.37297 -27.03906,7.26368 l -9.61133,1.62109 0.26172,11.96484 c 0.14466,6.5813 0.48383,13.15196 0.7539,14.60157 0.27008,1.4496 0.53765,5.13392 0.59375,8.1875 l 0.10157,5.55273 L 695,648.05078 c 3.48333,-1.31212 14.9679,-5.20865 25.52148,-8.66016 29.22749,-9.55874 55.10422,-21.82716 83.61719,-39.64062 10.16419,-6.35007 43.19531,-29.96697 43.19531,-30.88477 0,-0.20191 -2.93189,-12.92957 -6.51367,-28.2832 C 837.23856,525.22841 833.88917,509.66667 833.37695,506 831.85648,495.11588 823.76054,453.35536 820.15234,437.78906 818.30947,429.83856 815.21043,415.53331 813.26758,406 807.0201,375.34437 799.3348,345.40863 791.83984,322.5332 l -7.31054,-22.3125 -5.59766,-4.88867 c -3.07915,-2.6892 -11.75612,-9.37511 -19.28125,-14.85742 l -13.68164,-9.96875 -20.98437,-8.04297 c -35.75923,-13.70725 -54.38704,-18.72206 -85.6504,-23.05273 -27.08091,-3.75134 -36.15305,-4.42046 -62.85156,-4.63282 z m 49.83203,34.41797 13.93554,1.5918 c 29.09039,3.31894 77.59362,13.30065 80.95313,16.66015 0.58978,0.58978 -5.75404,2.41955 -14.35156,4.14063 -8.69635,1.74085 -41.74663,12.58978 -55.24219,18.13281 -7.38359,3.03267 -14.9245,5.98708 -16.75781,6.56641 -1.83334,0.57934 -9.93336,3.85915 -18,7.28711 -61.2807,26.04152 -94.11572,37.46756 -122,42.45703 -6.23334,1.11536 -15.83204,2.31678 -21.33204,2.66797 l -10,0.63672 -6.54101,-1.15039 c -3.59751,-0.6329 -10.31466,-3.00729 -14.92578,-5.27735 l -8.38281,-4.12695 -4.2168,-5.32422 -4.21875,-5.32422 -1.86914,-6.2168 -1.8711,-6.21484 0.875,-6.58984 0.87305,-6.58985 3.98242,-4.53515 C 416.39671,300.2879 467.24739,281.58799 524,272.5625 l 13.33398,-2.11914 31.39649,-0.72656 z M 389.45312,433.71875 c -0.12753,-0.0173 -0.20229,-0.0173 -0.21679,0.002 -0.11603,0.1537 -0.61668,4.93537 -1.11328,10.625 l -0.90235,10.34375 3.67383,1.39649 c 16.32781,6.20782 43.19963,12.36888 59.77149,13.70312 2.93332,0.23617 8.44066,0.53102 12.23828,0.6543 l 6.90429,0.22266 1.93164,-1.92969 1.93165,-1.93164 1.63085,-8.64649 c 0.89724,-4.75516 1.29017,-9.19812 0.87305,-9.87304 l -0.75781,-1.22657 -16.375,-0.76171 -16.37695,-0.76172 -18.09961,-3.39844 c -9.9554,-1.86945 -21.92959,-4.59037 -26.60938,-6.04688 -4.0948,-1.27444 -7.61114,-2.25012 -8.50391,-2.37109 z m -96.63671,11.48437 -5.74219,2.92383 c -3.15783,1.60857 -12.70722,7.34527 -21.22266,12.74805 l -15.48437,9.82422 -10.35157,10.25195 C 228.17009,492.68201 214,508.82916 214,510.59766 c 0,0.65824 -1.50775,2.9888 -3.34961,5.17773 -1.84186,2.18892 -6.06718,9.22063 -9.39062,15.62695 l -6.04297,11.64844 -3.39063,12.8086 -3.39062,12.80664 -0.72071,21.5332 -0.7207,21.5332 2.30664,13.80078 c 16.91836,101.2028 157.85636,189.73773 325.36524,204.38868 l 20,1.74804 34,0.1582 34,0.15821 22,-1.94141 C 776.68057,816.62383 904.66653,747.40143 945.83789,656.33594 l 4.36914,-9.66406 2.61719,-12.33594 L 955.43945,622 955.9707,605.33398 956.50391,588.66602 955.24609,580 c -0.69135,-4.76667 -3.32916,-15.28354 -5.86328,-23.37109 l -4.60742,-14.70508 -7.09375,-13.04297 c -12.8164,-23.5685 -35.03146,-50.16869 -53.36719,-63.89844 -9.9069,-7.41826 -27.29916,-18.3164 -29.23047,-18.3164 H 854 v 16.52734 16.52539 l 16.37305,16.47461 16.37109,16.47266 9.65234,14.4414 c 11.11787,16.63401 16.34639,27.20031 20.32227,41.06446 l 2.81836,9.82812 0.74219,14.77539 0.74023,14.77539 -1.58984,9.22461 -1.58985,9.22461 -5.31054,13.28125 c -2.92032,7.30492 -6.69833,15.10559 -8.39649,17.33398 -1.69816,2.22841 -4.71574,7.26519 -6.70508,11.19336 l -3.61718,7.14258 -19.57227,19.60742 -19.57226,19.60743 -13.33204,8.66796 c -60.96742,39.64232 -128.61655,62.50328 -210.66796,71.19141 l -20,2.11719 L 584,796.63086 557.33398,797.11914 530.95703,795.3457 C 417.04628,787.68818 321.35778,751.51549 264.80664,694.73242 l -11.47266,-11.52148 -9.27343,-13.93946 -9.27344,-13.9375 L 229.89062,644 l -4.89843,-11.33398 -2.33399,-11.80664 -2.33398,-11.8086 0.71875,-12.85937 0.7168,-12.85743 2.16211,-8 c 8.73397,-32.33265 27.42487,-59.88703 59.79687,-88.15234 L 290,481.69727 l 0.10156,-4.51563 c 0.0561,-2.48337 0.27181,-5.41563 0.47852,-6.51562 0.20671,-1.1 0.79496,-7.2779 1.30664,-13.73047 z m 411.68945,8.22071 c -2.84356,0.0277 -5.76829,0.69876 -8.53516,2.01172 l -4.43164,2.10351 -2.10351,4.43164 c -1.15666,2.4375 -2.10157,6.2447 -2.10157,8.46094 v 4.03125 l 3.55664,4.22656 c 1.95686,2.32559 4.80752,4.73404 6.33399,5.35157 1.52648,0.61752 5.3851,1.16053 8.57422,1.20703 l 5.79883,0.0859 3.7539,-4.01953 3.75391,-4.01953 0.88281,-5.22851 0.88477,-5.23047 -2.28321,-4.81055 -2.2832,-4.80859 -3.75391,-1.94141 c -2.44075,-1.26216 -5.20331,-1.8793 -8.04687,-1.85156 z m -307.80859,29.63476 c -2.767,-0.14358 -2.83146,3.57975 -1.80535,6.27863 0.666,1.75171 1.99997,4.00425 1.99997,4.00425 0,0 6.76957,7.31939 19.55733,10.139 4.88676,1.0775 16.98477,3.71404 26.88476,5.85937 l 18,3.90039 6.7803,0.92843 3.57865,-0.89677 1.04535,-7.03166 0.73828,-6.42578 -0.47165,-2.18361 -22.87796,-4.04686 c -14.55627,-2.36656 -32.84348,-5.88573 -40.63867,-7.82226 -6.70395,-1.66544 -10.63891,-2.59145 -12.79101,-2.70313 z m -109.98676,134.54365 -5.82157,1.51226 -0.80108,7.77017 c -1.85464,11.32672 31.8262,39.5626 31.8262,39.5626 l 51.52735,31.99218 13.16972,7.03918 19.28833,8.94413 c 0,0 18.50577,7.13068 26.90913,9.38974 28.62946,7.69608 53.86139,12.36338 90.52539,16.74609 9.53333,1.13959 19.13204,2.29003 21.33204,2.55664 2.19999,0.26661 6.77768,0.57567 10.17187,0.68555 L 551.00977,744 552.50391,733.94531 C 553.32639,728.41536 554,721.79605 554,719.23633 v -4.6543 l -1.66602,-0.52148 c -0.91665,-0.28683 -10.06732,-0.90384 -20.33398,-1.3711 -20.7216,-0.9431 -32.52507,-3.30766 -61.75634,-8.30294 l -23.21545,-5.00121 -21.60179,-6.71382 c -27.88154,-9.69361 -106.29395,-56.90959 -110.80923,-60.53281 -2.84945,-2.2865 -13.0656,-8.30942 -19.16337,-11.42586 z" />
  </g>
</svg>
